<svg width="1024" height="143" viewBox="0 0 1024 143" fill="none" xmlns="http://www.w3.org/2000/svg">
<path fill-rule="evenodd" clip-rule="evenodd" d="M1024 143L981.333 124.463C938.667 105.926 853.333 68.8518 768 66.2037C682.667 63.5555 597.333 95.3333 512 111.222C426.667 127.111 341.333 127.111 256 121.815C170.667 116.519 85.3333 105.926 42.6666 100.63L0 95.3333V3.93391e-06H42.6666C85.3333 3.93391e-06 170.667 3.93391e-06 256 3.93391e-06C341.333 3.93391e-06 426.667 3.93391e-06 512 3.93391e-06C597.333 3.93391e-06 682.667 3.93391e-06 768 3.93391e-06C853.333 3.93391e-06 938.667 3.93391e-06 981.333 3.93391e-06H1024V143Z" fill="#91A754"/>
</svg>